<?xml version="1.0" standalone="no"?>
<!DOCTYPE svg PUBLIC "-//W3C//DTD SVG 20010904//EN"
 "http://www.w3.org/TR/2001/REC-SVG-20010904/DTD/svg10.dtd">
<svg version="1.0" xmlns="http://www.w3.org/2000/svg"
 width="310.000000pt" height="298.000000pt" viewBox="0 0 310.000000 298.000000"
 preserveAspectRatio="xMidYMid meet">

<g transform="translate(0.000000,298.000000) scale(0.100000,-0.100000)"
fill="#000000" stroke="none">
<path d="M1374 2615 c-238 -37 -458 -149 -630 -322 -175 -176 -283 -390 -319
-630 -55 -364 62 -721 322 -979 176 -175 390 -283 630 -319 364 -55 721 62
979 322 175 176 283 390 319 630 74 492 -176 974 -623 1197 -193 97 -455 136
-678 101z m279 -395 c-29 -17 -53 -34 -53 -38 0 -4 37 -20 83 -37 l82 -30
-115 -7 c-63 -5 -120 -10 -127 -13 -15 -5 -56 -86 -73 -142 -7 -24 -16 -43
-19 -43 -3 0 -24 25 -46 56 -22 31 -45 63 -52 72 -11 16 -18 15 -85 -9 -40
-14 -82 -29 -93 -34 -25 -10 58 77 102 108 l32 22 -21 33 c-11 18 -18 35 -16
38 3 2 50 6 106 8 56 3 106 7 112 11 19 12 135 33 185 34 l50 1 -52 -30z m306
-160 c28 -11 56 -20 61 -20 6 0 10 17 10 38 l1 37 30 -35 c16 -19 41 -55 55
-79 15 -23 43 -60 64 -81 38 -38 112 -141 106 -147 -2 -2 -16 3 -32 12 -52 27
-62 21 -53 -27 4 -24 8 -70 9 -103 l0 -60 -45 80 c-25 44 -56 94 -69 110 l-23
29 -91 -12 c-50 -7 -99 -15 -108 -19 -10 -4 8 26 39 66 31 40 57 79 57 86 0
12 -55 65 -155 149 l-30 25 61 -14 c33 -8 84 -23 113 -35z m-908 -24 c-17 -29
-31 -57 -31 -61 0 -4 24 -5 53 -1 l52 6 -30 -22 c-85 -64 -114 -99 -124 -151
-6 -29 -12 -68 -13 -87 l-3 -35 -25 42 c-14 24 -27 43 -30 43 -3 0 -22 -25
-43 -56 -20 -31 -37 -55 -37 -52 0 2 7 29 16 59 21 71 73 173 119 235 36 47
115 134 123 134 2 0 -10 -24 -27 -54z m443 -236 c32 -49 61 -92 66 -95 4 -3
66 11 136 30 70 19 131 35 136 35 5 0 -28 -48 -72 -107 -44 -58 -80 -111 -80
-117 0 -6 38 -54 85 -106 46 -52 82 -96 80 -98 -2 -2 -60 10 -130 27 -70 17
-130 31 -135 31 -5 0 -37 -48 -72 -106 l-63 -107 -12 54 c-7 30 -16 90 -22
134 -5 44 -13 81 -18 83 -108 40 -196 79 -196 86 1 5 45 28 99 51 54 23 99 46
100 51 1 5 10 62 19 127 10 64 18 117 20 117 1 0 28 -40 59 -90z m-499 -273
c11 1 54 5 95 9 l75 7 -77 -78 c-43 -43 -78 -86 -78 -95 0 -10 13 -51 30 -91
16 -40 28 -74 26 -76 -1 -2 -28 15 -60 37 -32 22 -61 38 -65 36 -7 -5 -30 -54
-46 -101 -10 -28 -35 64 -35 131 0 37 -8 65 -27 99 l-26 48 22 19 c13 10 29
18 36 18 8 0 19 17 26 38 6 20 23 60 37 87 l26 50 10 -70 c10 -61 14 -70 31
-68z m1234 -99 c1 -31 5 -59 9 -62 11 -7 82 42 82 56 0 6 3 8 6 5 10 -9 -33
-123 -67 -177 -16 -26 -29 -56 -29 -67 0 -18 -28 -113 -37 -122 -2 -3 -16 8
-32 23 l-29 28 -44 -26 c-42 -24 -158 -69 -158 -61 0 2 23 36 50 76 l51 74
-55 48 c-31 26 -65 62 -77 78 l-21 29 70 -6 c38 -4 90 -4 116 0 44 7 48 10 75
64 15 31 38 84 52 117 l24 60 7 -40 c4 -22 7 -66 7 -97z m-1006 -356 l46 -32
86 66 c55 41 85 59 81 47 -6 -20 -26 -166 -26 -189 0 -7 35 -32 78 -53 68 -35
73 -40 46 -41 -17 0 -53 -3 -79 -7 l-47 -6 6 -38 c3 -20 9 -45 12 -54 11 -26
-84 25 -131 72 -30 29 -57 44 -103 56 -69 19 -156 60 -168 78 -5 8 -1 10 13 7
18 -5 123 9 131 16 1 2 -16 41 -38 88 -22 47 -40 89 -40 93 0 4 20 -11 44 -32
24 -21 64 -53 89 -71z m695 -148 c-4 -53 7 -56 96 -19 33 13 61 23 63 22 7 -8
-159 -108 -216 -131 -68 -27 -191 -56 -238 -56 -25 1 -22 3 20 22 26 11 47 23
47 27 0 4 -16 15 -35 25 -19 10 -41 26 -49 35 -13 15 -6 16 83 13 l98 -3 62
67 c33 37 62 72 62 78 4 30 10 -43 7 -80z"/>
</g>
</svg>
